<svg xmlns="http://www.w3.org/2000/svg" viewBox="0 0 25.6 25.6" height="100" width="100">
  <path d="M17.9 16.9a7 7 0 0 1-1.5.4l-9.9-1.6A2.5 2.5 0 0 1 5 13.4l-.2-10.7a4 4 0 0 1 .6-2A2 2 0 0 1 7.8.2l9.8 1.5A3 3 0 0 1 20 4.5v10.1a2.2 2.2 0 0 1-2.1 2.2z" fill="#336791"/>
  <path d="M13 4.1l-.3 7.5m1.5-7.8l.4 7.7m-4.7-7.1v7.6M8 4.7l.3 7m12.3 5.2a7 7 0 0 1-1.5.4l-9.9-1.6A2.5 2.5 0 0 1 7.5 13.4l-.2-10.7a4 4 0 0 1 .6-2A2 2 0 0 1 10.3.2l9.8 1.5A3 3 0 0 1 22.5 4.5v10.1a2.2 2.2 0 0 1-2.1 2.2z" fill="none" stroke="#fff" stroke-width=".5"/>
  <ellipse cx="16.6" cy="3.2" rx=".5" ry=".7" fill="#fff"/>
</svg> 