<svg width="400" height="400" viewBox="0 0 400 400" fill="none" xmlns="http://www.w3.org/2000/svg">
  <path d="M298.5 264H264V298.5C264 323.629 243.629 344 218.5 344H127.5C102.371 344 82 323.629 82 298.5V207.5C82 182.371 102.371 162 127.5 162H162V127.5C162 102.371 182.371 82 207.5 82H298.5C323.629 82 344 102.371 344 127.5V218.5C344 243.629 323.629 264 298.5 264Z" fill="#4945FF"/>
  <path d="M207.5 162H127.5C102.371 162 82 182.371 82 207.5V298.5C82 323.629 102.371 344 127.5 344H218.5C243.629 344 264 323.629 264 298.5V218.5C264 192.5 244.5 162 207.5 162Z" fill="#9593FF"/>
</svg> 