<svg width="400" height="400" viewBox="0 0 400 400" fill="none" xmlns="http://www.w3.org/2000/svg">
  <path fill-rule="evenodd" clip-rule="evenodd" d="M0 200V0H400V400H0V200Z" fill="#3178C6"/>
  <path fill-rule="evenodd" clip-rule="evenodd" d="M87.7021 200.7V217.693H131.854V354.878H171.083V217.693H215.235V200.885C215.235 191.742 215.15 183.991 214.979 183.905C214.892 183.735 196.792 183.65 174.834 183.65L134.861 183.82L134.69 192.281C134.605 196.969 134.519 200.629 134.519 200.714C134.519 200.8 113.677 200.8 87.7021 200.7ZM312.594 183.65C329.92 187.233 342.401 195.499 349.558 208.464C353.226 215.448 355.823 224.421 355.823 229.878C355.823 231.291 355.738 232.448 355.652 232.448C355.567 232.448 348.154 229.194 339.121 225.151C330.089 221.108 322.59 217.854 322.419 217.854C322.249 217.854 321.224 219.522 320.199 221.619C317.261 227.527 312.423 231.484 306.158 233.067C302.661 233.983 295.334 234.069 291.666 233.238C284.424 231.569 279.051 227.356 276.623 221.363C275.426 218.537 275.255 217.109 275.255 212.894C275.255 208.678 275.426 207.25 276.623 204.425C280.035 196.585 287.362 192.113 297.676 191.197C304.062 190.623 308.072 191.625 315.958 195.754L322.078 199.029L328.979 195.157C332.733 193.061 336.964 190.879 338.331 190.05C339.698 189.22 340.894 188.561 341.065 188.561C341.321 188.561 341.406 195.584 341.321 204.425C341.15 228.847 335.056 241.982 320.711 249.394C315.958 251.576 311.398 252.748 304.74 253.237C297.761 253.749 292.691 253.322 285.705 251.662C272.613 248.477 261.615 241.067 254.373 230.452C246.959 219.607 244.019 206.812 245.986 193.145C247.814 180.436 253.518 169.421 262.64 161.496C271.588 153.827 282.073 149.612 295.334 148.525C300.576 148.098 307.354 148.354 312.594 183.65Z" fill="white"/>
</svg> 